# xmcd
#
# Track frame offsets:
#	150
#	15462
#	26414
#	31986
#	43412
#	52958
#	65478
#	79297
#	94240
#	107310
#	121191
#	129377
#	139765
#	155678
#	170788
#
# Disc length: 2431
#
# Revision: 3
# Processed by: cddbd v1.5.1PL0 Copyright (c) Steve Scherf et al.
# Submitted via: cddb2pg 0.002
# Normalized: r2:DSETVAR1
#
DISCID=c4097d0f
DTITLE=Various Artist - 100% Las Vegas
DYEAR=1900
DGENRE=
TTITLE0=Tom Jones - Delilah
TTITLE1=Eydie Gorme - I'll Take Romance
TTITLE2=Rosemary Clooney - You Make Me Feel So Young-RosemaryClooney
TTITLE3=Perry Como - Catch A Falling Star
TTITLE4=Tom Jones - What's New Pussycat
TTITLE5=Andy Williams - Moon River
TTITLE6=Johnny Mathis - Chances Are
TTITLE7=Paul Anka - Times of Your Life
TTITLE8=Tony Bennett - I Left My Heart In San Francisco
TTITLE9=Andy Williams - Love Theme From The Godfather
TTITLE10=Dinah Shore - Don't Fence MeI n
TTITLE11=Dean Martin - Memories Are Made Of This
TTITLE12=Liza Minnelli - God Bless the Child
TTITLE13=Engelbert Humperdinck - Please Release me
TTITLE14=Wayne Newton - Danke Schön
EXTD=
EXTT0=
EXTT1=
EXTT2=
EXTT3=
EXTT4=
EXTT5=
EXTT6=
EXTT7=
EXTT8=
EXTT9=
EXTT10=
EXTT11=
EXTT12=
EXTT13=
EXTT14=
PLAYORDER=
